<?xml version="1.0" encoding="utf-8"?>
<!-- Generator: Adobe Illustrator 23.0.6, SVG Export Plug-In . SVG Version: 6.00 Build 0)  -->
<svg version="1.1" id="Layer_1" xmlns="http://www.w3.org/2000/svg" xmlns:xlink="http://www.w3.org/1999/xlink" x="0px" y="0px"
	 viewBox="0 0 742 328" style="enable-background:new 0 0 742 328;" xml:space="preserve">
<style type="text/css">
	.st0{fill:#FA4616;}
	.st1{fill:#FFFFFF;}
</style>
<g>
	<g>
		<path class="st0" d="M697.32,246.55c-7.87,44.21-51.06,80.38-95.96,80.38H82.56c-44.91,0-75.2-36.17-67.31-80.38L44.82,80.72
			C52.7,36.51,95.89,0.34,140.8,0.34h518.73c44.91,0,75.2,36.17,67.33,80.38L697.32,246.55z"/>
	</g>
	<g>
		<g>
			<path class="st1" d="M110.67,105.86h27.46l-6.35,36.39c6.9-5.1,14.55-8.74,28.56-8.74c27.28,0,38.01,18.19,34.19,39.84
				l-6.36,35.64c-4.55,26.02-19.65,38.58-53.3,38.58c-31.65,0-46.2-17.66-41.82-41.85L110.67,105.86z M166.7,176.07
				c2-11.27-2.36-18.91-17.1-18.91c-14.91,0-21.83,7.65-23.82,18.91l-5.09,28.55c-1.99,11.28,2.37,18.93,17.28,18.93
				c14.73,0,21.63-7.65,23.64-18.93L166.7,176.07z"/>
			<path class="st1" d="M232.85,245.93h-27.47l24.74-140.07h27.47L232.85,245.93z"/>
			<path class="st1" d="M307.04,135.33l-19.46,110.6h-27.46l19.46-110.6H307.04z"/>
			<path class="st1" d="M408.7,245.93h-27.46l12.18-69.68c2.19-11.1-2.19-18.55-16.92-18.55c-14.73,0-21.63,7.45-23.63,18.55
				l-12.38,69.68h-27.46l12.74-72.23c4.53-26.01,19.44-40.19,52.91-40.19c33.48,0,46.94,17.64,42.76,41.47L408.7,245.93z"/>
			<path class="st1" d="M434.12,245.93l24.73-140.07h27.47l-12.38,70.21h18.38l30.56-40.74h31.45l-41.82,55.84l21.65,54.76h-30.21
				l-16.53-46.57h-17.64l-8.19,46.57H434.12z"/>
			<path class="st1" d="M611.05,181.35c16.01,2.72,33.46,9.81,31.11,30.55l-0.38,2.01c-2.9,23.65-21.08,33.66-51.11,33.66
				c-29.64,0-45.29-13.47-42.38-30.2l0.91-5.27h26.74l-0.36,2.18c-1.45,8.37,3.45,13.1,17.1,13.1c14.01,0,20.19-5.1,21.47-12.56
				c1.81-10.18-10.02-11.45-24.38-14.19c-16.92-3.44-34.73-11.27-31.63-32.55l0.35-1.63c3.09-21.83,18.37-32.93,49.67-32.93
				c29.28,0,44.19,14,41.29,31.65l-0.74,4.19h-26.72l0.35-2.54c1.46-8.01-3.46-12.57-16.01-12.57c-12.91,0-19.09,4.55-20.37,12.37
				C583.95,177.89,597.05,178.81,611.05,181.35z"/>
		</g>
		<path class="st1" d="M293.71,119.35c-0.95,0.33-2.3,0.07-3.05-0.57l-12.98-11.17c-0.74-0.65-1.2-1.97-1.03-2.93l3.21-16.82
			c0.16-0.97,1.08-2.02,2.01-2.36l16.15-5.66c0.95-0.31,2.3-0.05,3.07,0.59l12.96,11.17c0.76,0.66,1.2,1.96,1.03,2.94l-3.19,16.8
			c-0.18,0.98-1.09,2.03-2.02,2.36L293.71,119.35z"/>
	</g>
</g>
</svg>
