<?xml version="1.0" encoding="utf-8"?>
<!-- Generator: Adobe Illustrator 16.0.0, SVG Export Plug-In . SVG Version: 6.00 Build 0)  -->
<!DOCTYPE svg PUBLIC "-//W3C//DTD SVG 1.1//EN" "http://www.w3.org/Graphics/SVG/1.1/DTD/svg11.dtd">
<svg version="1.1" id="Layer_1" xmlns="http://www.w3.org/2000/svg" xmlns:xlink="http://www.w3.org/1999/xlink" x="0px" y="0px"
	 width="300px" height="100px" viewBox="0 0 300 100" enable-background="new 0 0 300 100" xml:space="preserve">
<g>
	<g>
		<path fill="#FFFFFF" d="M120.776,68.314V47.018l-9.18,13.933h-0.187l-9.087-13.793v21.157h-7.037v-32.62h7.735l8.575,13.793
			l8.574-13.793h7.736v32.62H120.776z"/>
		<path fill="#FFFFFF" d="M151.578,68.874c-10.066,0-17.289-7.503-17.289-16.776v-0.094c0-9.273,7.316-16.869,17.382-16.869
			s17.289,7.503,17.289,16.776v0.093C168.96,61.277,161.644,68.874,151.578,68.874z M161.457,52.004
			c0-5.592-4.101-10.251-9.879-10.251c-5.779,0-9.786,4.567-9.786,10.159v0.093c0,5.593,4.101,10.253,9.879,10.253
			s9.786-4.567,9.786-10.159V52.004z"/>
		<path fill="#FFFFFF" d="M189.968,68.548h-6.337l-13.188-32.854h7.922l8.528,22.974l8.528-22.974h7.735L189.968,68.548z"/>
		<path fill="#FFFFFF" d="M208.188,68.314v-32.62h24.605v6.384h-17.476v6.617h15.379v6.384h-15.379v6.851h17.708v6.384H208.188z"/>
		<path fill="#FFFFFF" d="M239.178,41.846v-6.151h22.042V41.1l-8.248,7.875c4.474,0.746,8.761,3.076,8.761,9.18
			c0,6.198-4.474,10.719-11.743,10.719c-5.872,0-9.927-2.33-12.723-5.639l4.939-4.707c2.237,2.517,4.567,3.914,7.876,3.914
			c2.703,0,4.613-1.537,4.613-4.007c0-2.703-2.283-4.194-6.384-4.194h-2.982l-1.119-4.567l7.782-7.829H239.178z"/>
		<path fill="#FFFFFF" d="M279.112,68.78c-7.223,0-12.582-3.728-12.582-9.46c0-4.008,1.817-6.337,5.267-7.922
			c-2.517-1.538-4.147-3.635-4.147-7.176c0-5.033,4.566-8.994,11.463-8.994c6.897,0,11.464,3.961,11.464,8.994
			c0,3.542-1.631,5.639-4.147,7.176c3.309,1.725,5.266,3.821,5.266,7.735C291.694,65.239,286.336,68.78,279.112,68.78z
			 M279.112,54.707c-3.262,0-5.639,1.491-5.639,4.055c0,2.33,2.098,4.101,5.639,4.101c3.542,0,5.639-1.771,5.639-4.101
			C284.751,56.198,282.375,54.707,279.112,54.707z M279.112,41.146c-2.936,0-4.659,1.771-4.659,3.821
			c0,2.33,1.817,4.054,4.659,4.054c2.843,0,4.66-1.678,4.66-4.008C283.772,42.964,282.049,41.146,279.112,41.146z"/>
	</g>
	<g>
		<g>
			<circle fill="#FFFFFF" cx="65.282" cy="31.335" r="16.562"/>
			<path fill="#FFFFFF" d="M43.644,41.273c0,3.643-2.98,6.625-6.624,6.625H17.144c-3.643,0-6.625-2.982-6.625-6.625V21.398
				c0-3.644,2.982-6.625,6.625-6.625H37.02c3.644,0,6.624,2.981,6.624,6.625V41.273z"/>
			<path fill="#FFFFFF" d="M55.966,87.149c-0.909,0-2.029-0.646-2.482-1.435l-7.906-13.693c-0.457-0.79-0.457-2.08,0-2.869
				l7.906-13.693c0.453-0.789,1.573-1.434,2.482-1.434H71.78c0.909,0,2.028,0.645,2.482,1.434l7.907,13.693
				c0.456,0.789,0.456,2.079,0,2.869l-7.907,13.693c-0.454,0.789-1.573,1.435-2.482,1.435H55.966z"/>
			<path fill="#FFFFFF" d="M41.878,54.025c3.643,0,5.133,2.58,3.312,5.736L30.703,84.854c-1.821,3.155-4.804,3.155-6.626,0
				L9.59,59.762c-1.821-3.156-0.331-5.736,3.312-5.736H41.878z"/>
		</g>
	</g>
</g>
</svg>
